# xmcd
#
# Track frame offsets: 
#        150
#        9001
#        16907
#        31735
#        40684
#        46340
#        56536
#
# Disc length: 864 seconds
#
# Revision: 0
# Processed by: cddbd v1.5.2PL0 Copyright (c) Steve Scherf et al.
# Submitted via: ExactAudioCopyFreeDBPlugin 1.0
#
DISCID=3f035e07
DTITLE=Rebel Son - Bonnie Blue Flag
DYEAR=2015
DGENRE=Shockabilly
TTITLE0=Bonnie Blue Flag
TTITLE1=Yellow Rose Of Texas
TTITLE2=Lorena
TTITLE3=Johnny (Instrumental)
TTITLE4=Dixieland Gals
TTITLE5=Southern Soldier Boy
TTITLE6=Battle Cry Of Freedom (Confederate)
EXTD=
EXTT0=
EXTT1=
EXTT2=
EXTT3=
EXTT4=
EXTT5=
EXTT6=
PLAYORDER=
